During Stalin's reign of terror, Evgenia Ginzburg, a literature professor, was sent to 10 years hard labor in a gulag in Siberia. Having lost everything, and no longer wishing to live, she meets the camp doctor and begins to come back to life.
 
http://www.imdb.com/title/tt1142804/

Subs: Dutch (srt).


Evgenia Ginzburg (Emily Watson) leeft in het Rusland in de roerige beginjaren van het communisme. Aanvankelijk heeft ze geen last van het nieuwe bewind en ze weet een succesvolle carrière van de grond te krijgen. Maar onder Stalin wordt zij opgepakt op verdenking aanhanger te zijn van het Trotskisme. Niet veel later komt ze terecht in een strafkamp en Evgenia krijgt een loodzware tijd die zij alleen weet te overleven dankzij geloof in poëzie.
 
http://www.moviemeter.nl/film/48312

Ondertitels: Nederlands (srt).

General
Complete name                    : Within The Whirlwind-AC3-XviD-DVDRip 2009 TBS\Within The Whirlwind-AC3-XviD-DVDRip 2009 TBS.avi
Format                           : AVI
Format/Info                      : Audio Video Interleave
File size                        : 1.46 GiB
Duration                         : 1h 45mn
Overall bit rate                 : 1 973 Kbps
Writing application              : VirtualDubMod 1.5.4.1 (build 2178/release)
Writing library                  : VirtualDubMod build 2178/release

Video
ID                               : 0
Format                           : MPEG-4 Visual
Format profile                   : Simple@L3
Format settings, BVOP            : No
Format settings, QPel            : No
Format settings, GMC             : No warppoints
Format settings, Matrix          : Default (H.263)
Codec ID                         : XVID
Codec ID/Hint                    : XviD
Duration                         : 1h 45mn
Bit rate                         : 1 515 Kbps
Width                            : 720 pixels
Height                           : 400 pixels
Display aspect ratio             : 16:9
Frame rate                       : 25.000 fps
Resolution                       : 8 bits
Colorimetry                      : 4:2:0
Scan type                        : Progressive
Bits/(Pixel*Frame)               : 0.210
Stream size                      : 1.12 GiB (77%)
Writing library                  : XviD 1.1.2 (UTC 2006-11-01)

Audio
ID                               : 1
Format                           : AC-3
Format/Info                      : Audio Coding 3
Codec ID                         : 2000
Duration                         : 1h 45mn
Bit rate mode                    : Constant
Bit rate                         : 448 Kbps
Channel(s)                       : 6 channels
Channel positions                : Front: L C R, Surround: L R, LFE
Sampling rate                    : 48.0 KHz
Stream size                      : 340 MiB (23%)
Alignment                        : Split accross interleaves
Interleave, duration             : 40 ms (1.00 video frame)
Interleave, preload duration     : 500 ms

Thanks to Drentje for the source..

Blackbeard  TBS.